<svg width="16" height="16" xmlns="http://www.w3.org/2000/svg" fill="#ffb800"><path d="M5.798 3.113C6.775 1.371 7.264.5 8 .5s1.225.871 2.202 2.613c.216.385.404.865.771 1.129.35.251.838.276 1.252.351 1.963.358 2.945.536 3.202 1.214.019.05.034.1.047.152.173.706-.526 1.318-1.93 2.76-.439.452-.639.666-.726.958-.082.271-.042.565.036 1.152.27 2.016.402 3.134-.175 3.59-1.033.818-2.699-.617-3.632-1.048C8.532 13.133 8.274 13 8 13c-.274 0-.531.133-1.047.371-.933.43-2.599 1.866-3.632 1.048-.576-.456-.44-1.574-.17-3.59.078-.587.117-.88.036-1.152-.088-.292-.288-.506-.727-.957C1.057 7.277.353 6.665.526 5.96c.013-.052.028-.103.047-.153.257-.678 1.239-.856 3.202-1.214.414-.075.902-.1 1.252-.351.367-.264.555-.744.771-1.129Z"/></svg>