<svg xmlns="http://www.w3.org/2000/svg" width="16" height="16" style="color: rgb(255, 255, 255);"><path fill="currentColor" d="M10 9.333c0-.333 0-.666-.667-.666H6.667V10h2.666C10 10 10 9.667 10 9.333Z"></path><path fill="currentColor" fill-rule="evenodd" d="M2 8c0-4.941 1.059-6 6-6s6 1.059 6 6-1.059 6-6 6-6-1.059-6-6Zm4.667-3.333c-1 0-1.334.333-1.334 1.333v4c0 1 .334 1.333 1.41 1.333h1.943c.318 0 .633 0 .911-.023.281-.023.589-.074.868-.214.303-.151.539-.39.686-.721.137-.308.182-.663.182-1.042s-.045-.734-.182-1.041a1.44 1.44 0 0 0-.686-.722c-.28-.14-.587-.19-.868-.214-.278-.023-.593-.023-.911-.023h-2.02V6H10a.667.667 0 1 0 0-1.333H6.667Z" clip-rule="evenodd"></path></svg>